<mxfile host="app.diagrams.net" modified="2021-06-03T19:19:38.622Z" agent="5.0 (Windows NT 10.0; Win64; x64) AppleWebKit/537.36 (KHTML, like Gecko) Chrome/90.0.4430.212 Safari/537.36" etag="v7s-oceFwZjPcT4UinCv" version="14.7.3" type="github">
  <diagram id="kgpKYQtTHZ0yAKxKKP6v" name="Page-1">
    <mxGraphModel dx="3122" dy="762" grid="1" gridSize="10" guides="1" tooltips="1" connect="1" arrows="1" fold="1" page="1" pageScale="1" pageWidth="850" pageHeight="1100" math="0" shadow="0">
      <root>
        <mxCell id="0" />
        <mxCell id="1" parent="0" />
        <mxCell id="oh1h2UWWCm7a5rBzaaiq-1" value="" style="shape=umlFrame;whiteSpace=wrap;html=1;width=10;height=15;" vertex="1" parent="1">
          <mxGeometry x="-715" y="120" width="300" height="200" as="geometry" />
        </mxCell>
        <mxCell id="oh1h2UWWCm7a5rBzaaiq-2" value="&lt;font style=&quot;font-size: 16px&quot;&gt;Арендовать вещь&lt;/font&gt;" style="text;html=1;strokeColor=none;fillColor=none;align=center;verticalAlign=middle;whiteSpace=wrap;rounded=0;" vertex="1" parent="1">
          <mxGeometry x="-710" y="130" width="290" height="180" as="geometry" />
        </mxCell>
        <mxCell id="oh1h2UWWCm7a5rBzaaiq-3" value="&lt;font style=&quot;font-size: 13px&quot;&gt;Объявление&lt;/font&gt;" style="endArrow=classic;html=1;" edge="1" parent="1">
          <mxGeometry y="-50" width="50" height="50" relative="1" as="geometry">
            <mxPoint x="-620" y="40" as="sourcePoint" />
            <mxPoint x="-620" y="120" as="targetPoint" />
            <mxPoint as="offset" />
          </mxGeometry>
        </mxCell>
        <mxCell id="oh1h2UWWCm7a5rBzaaiq-4" value="" style="endArrow=classic;html=1;" edge="1" parent="1">
          <mxGeometry width="50" height="50" relative="1" as="geometry">
            <mxPoint x="-490" y="40" as="sourcePoint" />
            <mxPoint x="-490" y="120" as="targetPoint" />
          </mxGeometry>
        </mxCell>
        <mxCell id="oh1h2UWWCm7a5rBzaaiq-16" value="&lt;font style=&quot;font-size: 14px&quot;&gt;Сайт проката&lt;/font&gt;" style="edgeLabel;html=1;align=center;verticalAlign=middle;resizable=0;points=[];" vertex="1" connectable="0" parent="oh1h2UWWCm7a5rBzaaiq-4">
          <mxGeometry x="-0.35" y="-1" relative="1" as="geometry">
            <mxPoint x="51" y="14" as="offset" />
          </mxGeometry>
        </mxCell>
        <mxCell id="oh1h2UWWCm7a5rBzaaiq-5" value="&lt;font style=&quot;font-size: 14px&quot;&gt;Арендодатель&lt;/font&gt;" style="endArrow=classic;html=1;" edge="1" parent="1">
          <mxGeometry y="50" width="50" height="50" relative="1" as="geometry">
            <mxPoint x="-680" y="400" as="sourcePoint" />
            <mxPoint x="-680" y="320" as="targetPoint" />
            <Array as="points">
              <mxPoint x="-680" y="360" />
            </Array>
            <mxPoint as="offset" />
          </mxGeometry>
        </mxCell>
        <mxCell id="oh1h2UWWCm7a5rBzaaiq-6" value="&lt;font style=&quot;font-size: 14px&quot;&gt;Арендатор&lt;/font&gt;" style="endArrow=classic;html=1;" edge="1" parent="1">
          <mxGeometry y="-40" width="50" height="50" relative="1" as="geometry">
            <mxPoint x="-530" y="400" as="sourcePoint" />
            <mxPoint x="-530" y="320" as="targetPoint" />
            <Array as="points">
              <mxPoint x="-530" y="380" />
              <mxPoint x="-530" y="360" />
              <mxPoint x="-530" y="340" />
            </Array>
            <mxPoint as="offset" />
          </mxGeometry>
        </mxCell>
        <mxCell id="oh1h2UWWCm7a5rBzaaiq-7" value="&lt;font style=&quot;font-size: 14px&quot;&gt;Оператор&lt;/font&gt;" style="endArrow=classic;html=1;" edge="1" parent="1">
          <mxGeometry y="-40" width="50" height="50" relative="1" as="geometry">
            <mxPoint x="-435.5" y="400" as="sourcePoint" />
            <mxPoint x="-435.5" y="320" as="targetPoint" />
            <Array as="points">
              <mxPoint x="-435.5" y="380" />
              <mxPoint x="-435.5" y="340" />
            </Array>
            <mxPoint as="offset" />
          </mxGeometry>
        </mxCell>
        <mxCell id="oh1h2UWWCm7a5rBzaaiq-9" value="" style="endArrow=classic;html=1;" edge="1" parent="1">
          <mxGeometry width="50" height="50" relative="1" as="geometry">
            <mxPoint x="-415" y="219.5" as="sourcePoint" />
            <mxPoint x="-260" y="220" as="targetPoint" />
            <Array as="points" />
          </mxGeometry>
        </mxCell>
        <mxCell id="oh1h2UWWCm7a5rBzaaiq-15" value="&lt;span style=&quot;font-size: 14px&quot;&gt;Арендованная вещь&lt;/span&gt;" style="edgeLabel;html=1;align=center;verticalAlign=middle;resizable=0;points=[];" vertex="1" connectable="0" parent="oh1h2UWWCm7a5rBzaaiq-9">
          <mxGeometry x="0.3629" y="1" relative="1" as="geometry">
            <mxPoint x="-17" y="-19" as="offset" />
          </mxGeometry>
        </mxCell>
        <mxCell id="oh1h2UWWCm7a5rBzaaiq-11" value="&lt;font style=&quot;font-size: 13px&quot;&gt;А-0&lt;/font&gt;" style="text;html=1;strokeColor=none;fillColor=none;align=center;verticalAlign=middle;whiteSpace=wrap;rounded=0;" vertex="1" parent="1">
          <mxGeometry x="-455" y="300" width="40" height="20" as="geometry" />
        </mxCell>
        <mxCell id="oh1h2UWWCm7a5rBzaaiq-12" value="&lt;font style=&quot;font-size: 14px&quot;&gt;Товар&lt;/font&gt;" style="endArrow=classic;html=1;" edge="1" parent="1">
          <mxGeometry x="0.0001" y="21" width="50" height="50" relative="1" as="geometry">
            <mxPoint x="-845" y="170.5" as="sourcePoint" />
            <mxPoint x="-715" y="170" as="targetPoint" />
            <Array as="points">
              <mxPoint x="-815" y="170" />
              <mxPoint x="-765" y="170" />
              <mxPoint x="-745" y="170" />
            </Array>
            <mxPoint y="1" as="offset" />
          </mxGeometry>
        </mxCell>
        <mxCell id="oh1h2UWWCm7a5rBzaaiq-13" value="&lt;font style=&quot;font-size: 14px&quot;&gt;Курьер&lt;/font&gt;" style="endArrow=classic;html=1;" edge="1" parent="1">
          <mxGeometry y="-30" width="50" height="50" relative="1" as="geometry">
            <mxPoint x="-620" y="400" as="sourcePoint" />
            <mxPoint x="-620" y="320" as="targetPoint" />
            <Array as="points">
              <mxPoint x="-620" y="380" />
              <mxPoint x="-620" y="360" />
              <mxPoint x="-620" y="340" />
            </Array>
            <mxPoint as="offset" />
          </mxGeometry>
        </mxCell>
        <mxCell id="oh1h2UWWCm7a5rBzaaiq-14" value="&lt;font style=&quot;font-size: 14px&quot;&gt;Срок аренды&lt;/font&gt;" style="endArrow=classic;html=1;" edge="1" parent="1">
          <mxGeometry x="0.0001" y="21" width="50" height="50" relative="1" as="geometry">
            <mxPoint x="-845" y="220" as="sourcePoint" />
            <mxPoint x="-715" y="219.5" as="targetPoint" />
            <Array as="points">
              <mxPoint x="-815" y="219.5" />
              <mxPoint x="-765" y="219.5" />
              <mxPoint x="-745" y="219.5" />
            </Array>
            <mxPoint y="1" as="offset" />
          </mxGeometry>
        </mxCell>
        <mxCell id="oh1h2UWWCm7a5rBzaaiq-17" value="&lt;font style=&quot;font-size: 14px&quot;&gt;Данные арендатора&lt;/font&gt;" style="endArrow=classic;html=1;" edge="1" parent="1">
          <mxGeometry x="-0.1538" y="20" width="50" height="50" relative="1" as="geometry">
            <mxPoint x="-845" y="270.5" as="sourcePoint" />
            <mxPoint x="-715" y="270" as="targetPoint" />
            <Array as="points">
              <mxPoint x="-815" y="270" />
              <mxPoint x="-765" y="270" />
              <mxPoint x="-745" y="270" />
            </Array>
            <mxPoint as="offset" />
          </mxGeometry>
        </mxCell>
        <mxCell id="oh1h2UWWCm7a5rBzaaiq-19" value="" style="shape=umlFrame;whiteSpace=wrap;html=1;width=10;height=15;" vertex="1" parent="1">
          <mxGeometry x="-1200" y="580" width="270" height="130" as="geometry" />
        </mxCell>
        <mxCell id="oh1h2UWWCm7a5rBzaaiq-20" value="&lt;font style=&quot;font-size: 16px&quot;&gt;Арендовать вещь&lt;/font&gt;" style="text;html=1;strokeColor=none;fillColor=none;align=center;verticalAlign=middle;whiteSpace=wrap;rounded=0;" vertex="1" parent="1">
          <mxGeometry x="-1200" y="580" width="270" height="130" as="geometry" />
        </mxCell>
        <mxCell id="oh1h2UWWCm7a5rBzaaiq-21" value="&lt;font style=&quot;font-size: 13px&quot;&gt;Объявление&lt;/font&gt;" style="endArrow=classic;html=1;" edge="1" parent="1">
          <mxGeometry y="-50" width="50" height="50" relative="1" as="geometry">
            <mxPoint x="-1105" y="430" as="sourcePoint" />
            <mxPoint x="-1105" y="510" as="targetPoint" />
            <mxPoint as="offset" />
          </mxGeometry>
        </mxCell>
        <mxCell id="oh1h2UWWCm7a5rBzaaiq-22" value="" style="endArrow=classic;html=1;" edge="1" parent="1">
          <mxGeometry width="50" height="50" relative="1" as="geometry">
            <mxPoint x="-975" y="430" as="sourcePoint" />
            <mxPoint x="-975" y="510" as="targetPoint" />
          </mxGeometry>
        </mxCell>
        <mxCell id="oh1h2UWWCm7a5rBzaaiq-23" value="&lt;font style=&quot;font-size: 14px&quot;&gt;Сайт проката&lt;/font&gt;" style="edgeLabel;html=1;align=center;verticalAlign=middle;resizable=0;points=[];" vertex="1" connectable="0" parent="oh1h2UWWCm7a5rBzaaiq-22">
          <mxGeometry x="-0.35" y="-1" relative="1" as="geometry">
            <mxPoint x="51" y="14" as="offset" />
          </mxGeometry>
        </mxCell>
        <mxCell id="oh1h2UWWCm7a5rBzaaiq-24" value="&lt;font style=&quot;font-size: 14px&quot;&gt;Арендодатель&lt;/font&gt;" style="endArrow=classic;html=1;" edge="1" parent="1">
          <mxGeometry y="50" width="50" height="50" relative="1" as="geometry">
            <mxPoint x="-1165" y="790" as="sourcePoint" />
            <mxPoint x="-1165" y="710" as="targetPoint" />
            <Array as="points">
              <mxPoint x="-1165" y="750" />
            </Array>
            <mxPoint as="offset" />
          </mxGeometry>
        </mxCell>
        <mxCell id="oh1h2UWWCm7a5rBzaaiq-25" value="&lt;font style=&quot;font-size: 14px&quot;&gt;Арендатор&lt;/font&gt;" style="endArrow=classic;html=1;" edge="1" parent="1">
          <mxGeometry y="-40" width="50" height="50" relative="1" as="geometry">
            <mxPoint x="-1015" y="790" as="sourcePoint" />
            <mxPoint x="-1015" y="710" as="targetPoint" />
            <Array as="points">
              <mxPoint x="-1015" y="770" />
              <mxPoint x="-1015" y="750" />
              <mxPoint x="-1015" y="730" />
            </Array>
            <mxPoint as="offset" />
          </mxGeometry>
        </mxCell>
        <mxCell id="oh1h2UWWCm7a5rBzaaiq-26" value="&lt;font style=&quot;font-size: 14px&quot;&gt;Оператор&lt;/font&gt;" style="endArrow=classic;html=1;" edge="1" parent="1">
          <mxGeometry y="-40" width="50" height="50" relative="1" as="geometry">
            <mxPoint x="-920.5" y="790" as="sourcePoint" />
            <mxPoint x="-920.5" y="710" as="targetPoint" />
            <Array as="points">
              <mxPoint x="-920.5" y="770" />
              <mxPoint x="-920.5" y="730" />
            </Array>
            <mxPoint as="offset" />
          </mxGeometry>
        </mxCell>
        <mxCell id="oh1h2UWWCm7a5rBzaaiq-27" value="" style="endArrow=classic;html=1;" edge="1" parent="1">
          <mxGeometry width="50" height="50" relative="1" as="geometry">
            <mxPoint x="-900" y="609.5" as="sourcePoint" />
            <mxPoint x="-745" y="610" as="targetPoint" />
            <Array as="points" />
          </mxGeometry>
        </mxCell>
        <mxCell id="oh1h2UWWCm7a5rBzaaiq-28" value="&lt;span style=&quot;font-size: 14px&quot;&gt;Арендованная вещь&lt;/span&gt;" style="edgeLabel;html=1;align=center;verticalAlign=middle;resizable=0;points=[];" vertex="1" connectable="0" parent="oh1h2UWWCm7a5rBzaaiq-27">
          <mxGeometry x="0.3629" y="1" relative="1" as="geometry">
            <mxPoint x="-17" y="-19" as="offset" />
          </mxGeometry>
        </mxCell>
        <mxCell id="oh1h2UWWCm7a5rBzaaiq-29" value="&lt;font style=&quot;font-size: 13px&quot;&gt;А-0&lt;/font&gt;" style="text;html=1;strokeColor=none;fillColor=none;align=center;verticalAlign=middle;whiteSpace=wrap;rounded=0;" vertex="1" parent="1">
          <mxGeometry x="-940" y="690" width="40" height="20" as="geometry" />
        </mxCell>
        <mxCell id="oh1h2UWWCm7a5rBzaaiq-30" value="&lt;font style=&quot;font-size: 14px&quot;&gt;Товар&lt;/font&gt;" style="endArrow=classic;html=1;" edge="1" parent="1">
          <mxGeometry x="0.0001" y="21" width="50" height="50" relative="1" as="geometry">
            <mxPoint x="-1330" y="560.5" as="sourcePoint" />
            <mxPoint x="-1200" y="560" as="targetPoint" />
            <Array as="points">
              <mxPoint x="-1300" y="560" />
              <mxPoint x="-1250" y="560" />
              <mxPoint x="-1230" y="560" />
            </Array>
            <mxPoint y="1" as="offset" />
          </mxGeometry>
        </mxCell>
        <mxCell id="oh1h2UWWCm7a5rBzaaiq-31" value="&lt;font style=&quot;font-size: 14px&quot;&gt;Курьер&lt;/font&gt;" style="endArrow=classic;html=1;" edge="1" parent="1">
          <mxGeometry y="-30" width="50" height="50" relative="1" as="geometry">
            <mxPoint x="-1105" y="790" as="sourcePoint" />
            <mxPoint x="-1105" y="710" as="targetPoint" />
            <Array as="points">
              <mxPoint x="-1105" y="770" />
              <mxPoint x="-1105" y="750" />
              <mxPoint x="-1105" y="730" />
            </Array>
            <mxPoint as="offset" />
          </mxGeometry>
        </mxCell>
        <mxCell id="oh1h2UWWCm7a5rBzaaiq-32" value="&lt;font style=&quot;font-size: 14px&quot;&gt;Срок аренды&lt;/font&gt;" style="endArrow=classic;html=1;" edge="1" parent="1">
          <mxGeometry x="0.0001" y="21" width="50" height="50" relative="1" as="geometry">
            <mxPoint x="-1330" y="610" as="sourcePoint" />
            <mxPoint x="-1200" y="609.5" as="targetPoint" />
            <Array as="points">
              <mxPoint x="-1300" y="609.5" />
              <mxPoint x="-1250" y="609.5" />
              <mxPoint x="-1230" y="609.5" />
            </Array>
            <mxPoint y="1" as="offset" />
          </mxGeometry>
        </mxCell>
        <mxCell id="oh1h2UWWCm7a5rBzaaiq-33" value="&lt;font style=&quot;font-size: 14px&quot;&gt;Данные арендатора&lt;/font&gt;" style="endArrow=classic;html=1;" edge="1" parent="1">
          <mxGeometry x="-0.1538" y="20" width="50" height="50" relative="1" as="geometry">
            <mxPoint x="-1330" y="660.5" as="sourcePoint" />
            <mxPoint x="-1200" y="660" as="targetPoint" />
            <Array as="points">
              <mxPoint x="-1300" y="660" />
              <mxPoint x="-1250" y="660" />
              <mxPoint x="-1230" y="660" />
            </Array>
            <mxPoint as="offset" />
          </mxGeometry>
        </mxCell>
      </root>
    </mxGraphModel>
  </diagram>
</mxfile>
